<?xml version="1.0" encoding="UTF-8"?>
<svg id="coloredSvg49" xmlns="http://www.w3.org/2000/svg" version="1.1" viewBox="0 0 56 58">
  <!-- Generator: Adobe Illustrator 29.8.3, SVG Export Plug-In . SVG Version: 2.1.1 Build 3)  -->
  <defs>
    <style>
      .st0 {
        stroke-linecap: round;
      }

      .st0, .st1 {
        fill: #fff;
      }

      .st0, .st2, .st3 {
        stroke: #3e4142;
        stroke-width: 3.2px;
      }

      .st0, .st3 {
        stroke-linejoin: round;
      }

      .st2 {
        stroke-miterlimit: 10;
      }

      .st2, .st3 {
        fill: #a8a8a8;
      }
    </style>
  </defs>
  <path class="st0" d="M17.5,26.7h-7.2v20h7.2v-20Z"/>
  <path class="st0" d="M31.6,26.7h-7.2v20h7.2v-20Z"/>
  <path class="st0" d="M45.6,26.7h-7.2v20h7.2v-20Z"/>
  <path class="st3" d="M6.4,23.2h43v4c0,.8-.6,1.4-1.4,1.4H7.8c-.8,0-1.4-.6-1.4-1.4v-4Z"/>
  <path class="st0" d="M27.3,5.8L3.4,20.9c-1.4.9-.8,3,.9,3h47.8c1.6,0,2.2-2.1.9-3L29,5.8c-.5-.3-1.2-.3-1.7,0Z"/>
  <path class="st3" d="M52.7,51.8H3.6l3.4-5.6c.4-.6,1-.9,1.6-.9h38.9c.7,0,1.3.3,1.6.9l3.4,5.6Z"/>
  <path class="st0" d="M52.7,51.6H3.4c-.8,0-1.5.7-1.5,1.5v1.4c0,.8.7,1.5,1.5,1.5h49.3c.8,0,1.5-.7,1.5-1.5v-1.4c0-.8-.7-1.5-1.5-1.5Z"/>
  <path class="st2" d="M28.2,20.3c4.9,0,8.9-4,8.9-8.9s-4-8.9-8.9-8.9-8.9,4-8.9,8.9,4,8.9,8.9,8.9Z"/>
  <path class="st1" d="M28.9,5.5v1.1c.5,0,.9.2,1.1.5.3.2.6.6.8,1.1l-1.1.7c-.4-.6-.8-1-1.4-1s-.6.1-.9.3c-.2.2-.3.5-.3.8s0,.5.3.7c.2.2.6.4,1.1.6.5.2.9.4,1.2.6.3.2.5.4.7.5.4.5.7,1.1.7,1.7s-.2,1.3-.6,1.8c-.4.5-.9.9-1.6,1v1.2h-1v-1.2c-.8-.1-1.4-.4-1.8-.8-.4-.4-.7-1-.9-1.9l1.3-.3c.2.6.4,1,.6,1.3.3.2.6.4,1.1.4s.8-.1,1.1-.4c.3-.3.4-.6.4-1.1s-.1-.7-.4-.9c-.1-.1-.3-.2-.5-.4-.2-.1-.5-.3-.9-.5-.8-.4-1.3-.6-1.5-.9-.4-.4-.6-1-.6-1.5s0-.6.1-.8c0-.2.2-.5.4-.7.2-.2.4-.4.6-.5.2-.2.5-.3.9-.4v-1.1h1Z"/>
</svg>