<?xml version="1.0" encoding="UTF-8"?>
<svg id="coloredSvg75" xmlns="http://www.w3.org/2000/svg" version="1.1" xmlns:xlink="http://www.w3.org/1999/xlink" viewBox="0 0 62.8 57.2">
  <!-- Generator: Adobe Illustrator 29.8.3, SVG Export Plug-In . SVG Version: 2.1.1 Build 3)  -->
  <defs>
    <style>
      .st0, .st1 {
        fill: #fff;
      }

      .st2 {
        mask: url(#mask);
      }

      .st1 {
        fill-rule: evenodd;
      }

      .st3 {
        stroke: #3e4142;
        stroke-miterlimit: 10;
        stroke-width: 3.2px;
      }

      .st3, .st4 {
        fill: #a8a8a8;
      }

      .st5 {
        fill: #3e4142;
      }
    </style>
    <mask id="mask" x="-1.1" y="0" width="58.8" height="53.3" maskUnits="userSpaceOnUse">
      <g id="mask0_6076_711">
        <path class="st1" d="M12.4,32.6l3.4,1.8c1.3.7,3,.2,3.7-1.1.7-1.4.2-3-1.1-3.7l-9-4.8h0c-.4-.2-.9-.3-1.3-.3-1,0-1.9.5-2.4,1.4h0S.8,34.8.8,34.8c-.7,1.3-.2,3,1.1,3.7,1.3.7,3,.2,3.7-1.1l1.5-2.8c.7,2,1.7,4,2.9,5.8,2.8,4.1,6.7,7.4,11.3,9.3,4.6,1.9,9.7,2.4,14.5,1.4,4.9-1,9.4-3.4,12.9-6.9,3.5-3.5,5.9-8,6.9-12.9,1-4.9.5-9.9-1.4-14.5-1.9-4.6-5.1-8.5-9.3-11.3-3.3-2.2-7.2-3.6-11.2-4.1-1.5-.2-2.8,1.1-2.8,2.7s1.3,2.8,2.8,3c2.9.4,5.6,1.5,8,3.1,3.2,2.1,5.7,5.2,7.2,8.8,1.5,3.6,1.9,7.5,1.1,11.3-.8,3.8-2.6,7.3-5.3,10-2.7,2.7-6.2,4.6-10,5.3-3.8.8-7.7.4-11.3-1.1-3.6-1.5-6.6-4-8.8-7.2-1-1.5-1.8-3.1-2.3-4.8h0Z"/>
      </g>
    </mask>
  </defs>
  <path class="st3" d="M39.8,26h-6.9v-10c0-1.2-1-2.2-2.2-2.2s-2.2,1-2.2,2.2v12.3c0,1.2,1,2.2,2.2,2.2h9.1c1.2,0,2.2-1,2.2-2.2s-1-2.2-2.2-2.2h0Z"/>
  <path class="st1" d="M12.4,32.6l3.4,1.8c1.3.7,3,.2,3.7-1.1.7-1.4.2-3-1.1-3.7l-9-4.8h0c-.4-.2-.9-.3-1.3-.3-1,0-1.9.5-2.4,1.4h0S.8,34.8.8,34.8c-.7,1.3-.2,3,1.1,3.7,1.3.7,3,.2,3.7-1.1l1.5-2.8c.7,2,1.7,4,2.9,5.8,2.8,4.1,6.7,7.4,11.3,9.3,4.6,1.9,9.7,2.4,14.5,1.4,4.9-1,9.4-3.4,12.9-6.9,3.5-3.5,5.9-8,6.9-12.9,1-4.9.5-9.9-1.4-14.5-1.9-4.6-5.1-8.5-9.3-11.3-3.3-2.2-7.2-3.6-11.2-4.1-1.5-.2-2.8,1.1-2.8,2.7s1.3,2.8,2.8,3c2.9.4,5.6,1.5,8,3.1,3.2,2.1,5.7,5.2,7.2,8.8,1.5,3.6,1.9,7.5,1.1,11.3-.8,3.8-2.6,7.3-5.3,10-2.7,2.7-6.2,4.6-10,5.3-3.8.8-7.7.4-11.3-1.1-3.6-1.5-6.6-4-8.8-7.2-1-1.5-1.8-3.1-2.3-4.8h0Z"/>
  <g class="st2">
    <path class="st5" d="M12.4,32.6l.8-1.4-3.5-1.9,1.2,3.8,1.5-.5h0ZM7.1,34.7l1.5-.5-1.2-3.4-1.7,3.2,1.4.8h0ZM11.6,34l3.4,1.8,1.5-2.8-3.4-1.8-1.5,2.8ZM15,35.8c2.1,1.1,4.7.3,5.9-1.8l-2.8-1.5c-.3.6-1,.8-1.6.5l-1.5,2.8ZM20.9,34.1c1.1-2.1.3-4.7-1.8-5.9l-1.5,2.8c.6.3.8,1,.5,1.6l2.8,1.5ZM19.1,28.2l-9-4.8-1.5,2.8,9,4.8,1.5-2.8ZM10.2,23.4h0l-1.5,2.8h0l1.5-2.8ZM10.1,23.4c-.6-.3-1.4-.5-2.1-.5v3.2c.2,0,.4,0,.6.2l1.5-2.8h0ZM8.1,22.9c-1.5,0-3,.8-3.8,2.3l2.8,1.5c.2-.4.6-.6,1-.6v-3.2h0ZM4.3,25.1h0s2.8,1.5,2.8,1.5h0s-2.8-1.5-2.8-1.5ZM4.3,25.1L-.6,34.1l2.8,1.5,4.9-9-2.8-1.5ZM-.6,34.1c-1.1,2.1-.4,4.7,1.8,5.9l1.5-2.8c-.6-.3-.8-1-.5-1.6l-2.8-1.5ZM1.2,40c2.1,1.1,4.7.3,5.9-1.8l-2.8-1.5c-.3.6-1,.8-1.6.5l-1.5,2.8ZM7,38.2l1.5-2.8-2.8-1.5-1.5,2.8,2.8,1.5ZM5.6,35.2c.7,2.2,1.8,4.3,3.1,6.2l2.6-1.8c-1.1-1.7-2-3.5-2.7-5.5l-3,1h0ZM8.7,41.4c2.9,4.4,7.1,7.8,12,9.8l1.2-2.9c-4.3-1.8-8-4.8-10.6-8.7l-2.6,1.8h0ZM20.7,51.3c4.9,2,10.3,2.5,15.4,1.5l-.6-3.1c-4.6.9-9.3.4-13.6-1.4l-1.2,2.9h0ZM36.1,52.8c5.2-1,9.9-3.6,13.7-7.3l-2.2-2.2c-3.3,3.3-7.5,5.5-12.1,6.5l.6,3.1ZM49.8,45.5c3.7-3.7,6.3-8.5,7.3-13.7l-3.1-.6c-.9,4.6-3.2,8.8-6.5,12.1l2.2,2.2ZM57.1,31.8c1-5.2.5-10.6-1.5-15.4l-2.9,1.2c1.8,4.3,2.3,9,1.4,13.6l3.1.6h0ZM55.6,16.4c-2-4.9-5.4-9.1-9.8-12l-1.8,2.6c3.9,2.6,6.9,6.3,8.7,10.6l2.9-1.2h0ZM45.8,4.4C42.2,2,38.1.5,33.9,0l-.3,3.1c3.7.4,7.3,1.7,10.5,3.8l1.8-2.6h0ZM33.9,0c-2.6-.3-4.6,1.9-4.6,4.2h3.2c0-.7.6-1.1,1.1-1.1L33.9,0h0ZM29.4,4.3c0,2.5,2,4.3,4.2,4.6l.5-3.1c-.9-.1-1.5-.8-1.5-1.5h-3.2,0ZM33.5,8.8c2.6.4,5.2,1.4,7.4,2.8l1.8-2.6c-2.6-1.8-5.6-2.9-8.7-3.3l-.5,3.1h0ZM40.9,11.7c3,2,5.2,4.8,6.6,8.1l2.9-1.2c-1.6-3.9-4.3-7.1-7.8-9.5l-1.8,2.6ZM47.5,19.7c1.4,3.3,1.7,6.9,1,10.4l3.1.6c.8-4.1.4-8.3-1.2-12.2l-2.9,1.2ZM48.5,30.1c-.7,3.5-2.4,6.7-4.9,9.2l2.2,2.2c3-3,5-6.7,5.8-10.8l-3.1-.6h0ZM43.6,39.3c-2.5,2.5-5.7,4.2-9.2,4.9l.6,3.1c4.1-.8,7.9-2.8,10.8-5.8l-2.2-2.2h0ZM34.4,44.2c-3.5.7-7.1.3-10.4-1l-1.2,2.9c3.9,1.6,8.1,2,12.2,1.2l-.6-3.1ZM24.1,43.2c-3.3-1.4-6.1-3.7-8-6.6l-2.6,1.8c2.3,3.5,5.6,6.2,9.5,7.8l1.2-2.9ZM16,36.6c-.9-1.4-1.6-2.9-2.2-4.4l-3,1c.6,1.8,1.4,3.6,2.5,5.2l2.6-1.8h0Z"/>
  </g>
  <path class="st4" d="M26.9,4.1c-.2-1.2-1.4-2.1-2.6-1.8-.9.2-1.7.5-2.5.9-1.2.5-1.6,1.9-1.1,3,.6,1.1,1.9,1.6,3.1,1.1.4-.1.9-.3,1.3-.4,1.2-.4,2-1.5,1.8-2.8Z"/>
  <path class="st4" d="M17.5,8.1c-.8-1-2.2-1.3-3.1-.4-.7.6-1.3,1.2-1.9,1.9-.9.9-.7,2.4.3,3.2,1,.8,2.4.6,3.3-.3.3-.3.6-.6,1-.9.9-.8,1.2-2.3.4-3.3h0Z"/>
  <path class="st4" d="M11.1,15.2c-1.1-.6-2.5-.3-3,.9-.4.8-.7,1.6-1,2.5-.4,1.2.4,2.4,1.6,2.7,1.2.3,2.5-.5,2.9-1.7.1-.4.3-.8.5-1.2.5-1.2.1-2.6-1-3.2h0Z"/>
  <path class="st3" d="M48.5,55c6.7,0,12.1-5.3,12.1-11.9s-5.4-11.9-12.1-11.9-12.1,5.3-12.1,11.9,5.4,11.9,12.1,11.9Z"/>
  <path class="st0" d="M49.6,35.2v1.6c.6,0,1.1.3,1.5.6.4.3.8.8,1.2,1.5l-1.6.9c-.5-.9-1.1-1.3-1.8-1.3s-.9.1-1.2.4c-.3.3-.5.6-.5,1s.1.7.4,1,.7.5,1.5.9c.7.3,1.2.6,1.6.8.4.2.7.5,1,.8.6.6.9,1.4.9,2.3s-.3,1.7-.8,2.4c-.5.7-1.2,1.1-2.2,1.4v1.6h-1.4v-1.6c-1.1-.2-1.8-.5-2.4-1.1s-1-1.4-1.2-2.5l1.8-.4c.2.8.5,1.4.9,1.7.4.3.9.5,1.5.5s1.1-.2,1.5-.6c.4-.4.6-.9.6-1.5s-.2-1-.5-1.3c-.2-.1-.4-.3-.7-.5-.3-.2-.7-.4-1.2-.6-1-.5-1.7-.9-2-1.3-.5-.6-.8-1.3-.8-2.1s0-.7.2-1.1c.1-.3.3-.6.5-.9.2-.3.5-.5.9-.7.3-.2.7-.3,1.1-.5v-1.6h1.4,0Z"/>
</svg>