<?xml version="1.0" encoding="UTF-8"?>
<svg id="coloredSvg56" xmlns="http://www.w3.org/2000/svg" version="1.1" viewBox="0 0 53.5 40.3">
  <!-- Generator: Adobe Illustrator 29.8.3, SVG Export Plug-In . SVG Version: 2.1.1 Build 3)  -->
  <defs>
    <style>
      .st0, .st1 {
        fill: #fff;
      }

      .st0, .st2 {
        stroke: #3e4142;
        stroke-linecap: round;
        stroke-linejoin: round;
        stroke-width: 3.2px;
      }

      .st2 {
        fill: #a8a8a8;
      }
    </style>
  </defs>
  <path class="st0" d="M45.4,2.1H8.3c-3.3,0-6.1,2.7-6.1,6v24.1c0,3.3,2.7,6,6.1,6h37.1c3.3,0,6-2.7,6-6V8.2c0-3.3-2.7-6-6-6Z"/>
  <path class="st2" d="M2.2,14.4h12.9c2.8,0,5,2.2,5,5v1c0,2.8-2.2,5-5,5H2.2v-11.1Z"/>
  <path class="st1" d="M13.9,22c1.2,0,2.1-.9,2.1-2.1s-.9-2.1-2.1-2.1-2.1.9-2.1,2.1.9,2.1,2.1,2.1Z"/>
</svg>