<?xml version="1.0" encoding="UTF-8"?>
<svg id="coloredSvg48" xmlns="http://www.w3.org/2000/svg" version="1.1" viewBox="0 0 46.9 58.2">
  <!-- Generator: Adobe Illustrator 29.8.3, SVG Export Plug-In . SVG Version: 2.1.1 Build 3)  -->
  <defs>
    <style>
      .st0 {
        stroke-linecap: round;
        stroke-linejoin: round;
      }

      .st0, .st1 {
        fill: #fff;
      }

      .st0, .st2 {
        stroke: #3e4142;
        stroke-width: 3.2px;
      }

      .st2 {
        fill: #a8a8a8;
        stroke-miterlimit: 10;
      }

      .st3 {
        fill: #3e4142;
      }
    </style>
  </defs>
  <path class="st0" d="M2.7,7.7v42.9c0,2.8,2.2,5,5,5h22c2.8,0,5-2.2,5-5V7.7c0-2.8-2.2-5-5-5H7.7c-2.8,0-5,2.2-5,5Z"/>
  <path class="st3" d="M24.2,4.8h-11c-.5,0-.9.4-.9.9s.4.9.9.9h11c.5,0,.9-.4.9-.9s-.4-.9-.9-.9Z"/>
  <path class="st3" d="M18.7,52.6c1.2,0,2.1-.9,2.1-2.1s-.9-2.1-2.1-2.1-2.1.9-2.1,2.1.9,2.1,2.1,2.1Z"/>
  <path class="st2" d="M39.1,15.3H13.6c-3.1,0-5.6,2.5-5.6,5.6v11.7c0,4.8,3.4,5,5.9,5.5v4.1c0,.8.9,1.2,1.5.8l6.3-4.7h17.3c3.1,0,5.6-2.5,5.6-5.6v-11.7c0-3.1-2.5-5.6-5.6-5.6Z"/>
  <path class="st1" d="M19.2,27.9h-3.4v2.6c0,.5-.3.8-.8.8s-.8-.2-.8-.8v-6.9c0-.4.1-.7.4-.9.2-.2.6-.4,1-.4h3.7c.7,0,1.3.3,1.8.8.5.5.7,1.2.7,2s-.2,1.5-.7,2c-.5.6-1.1.9-1.9.9h0ZM19.1,23.7h-2.9c-.3,0-.5.2-.5.6v2.1h3.3c.3,0,.6-.1.8-.4.2-.3.3-.6.3-1s-.1-.7-.3-1c-.2-.2-.5-.4-.8-.4h0Z"/>
  <path class="st1" d="M30.3,31.2c-.3,0-.5-.2-.7-.5l-.6-1.4h-4.5l-.6,1.4c-.2.4-.4.5-.7.5s-.4,0-.6-.3c-.2-.2-.3-.4-.3-.6s0-.3.1-.4l3.5-7.4c.2-.3.5-.5.9-.5s.7.2.9.5l3.5,7.4c0,.1.1.3.1.4,0,.2-.1.5-.3.6-.2.2-.4.3-.6.3h0ZM26.7,24.3l-1.6,3.5h3.2l-1.6-3.5Z"/>
  <path class="st1" d="M39.7,23.3l-3.2,4.5v2.7c0,.2,0,.4-.2.6s-.3.2-.5.2-.4,0-.6-.2c-.1-.1-.2-.3-.2-.6v-2.7l-3.2-4.5c-.1-.1-.2-.3-.2-.5s0-.4.3-.6c.2-.1.4-.2.6-.2s.4.1.6.3l2.7,4,2.7-4c.2-.2.3-.3.5-.3s.4,0,.6.2c.2.2.3.3.3.5s0,.4-.2.5h0Z"/>
</svg>