<?xml version="1.0" encoding="UTF-8"?>
<svg id="coloredSvg57" xmlns="http://www.w3.org/2000/svg" version="1.1" viewBox="0 0 53.2 49.9">
  <!-- Generator: Adobe Illustrator 29.8.3, SVG Export Plug-In . SVG Version: 2.1.1 Build 3)  -->
  <defs>
    <style>
      .st0 {
        fill: #fff;
      }

      .st0, .st1 {
        stroke-linecap: round;
        stroke-linejoin: round;
      }

      .st0, .st1, .st2 {
        stroke: #3e4142;
        stroke-width: 3.2px;
      }

      .st1 {
        fill: none;
      }

      .st2 {
        stroke-miterlimit: 10;
      }

      .st2, .st3 {
        fill: #a8a8a8;
      }
    </style>
  </defs>
  <path class="st0" d="M6.5,20.6h40.2v21.7c0,3.2-2.6,5.7-5.7,5.7H12.2c-3.2,0-5.7-2.6-5.7-5.7v-21.7Z"/>
  <path class="st2" d="M2.3,18.8c-.1.4-.2.9-.2,1.4,0,2.7,2.2,4.9,4.9,4.9s4.9-2.2,4.9-4.9,0-.9-.2-1.4H2.3Z"/>
  <path class="st2" d="M12.1,18.8c-.1.4-.2.9-.2,1.4,0,2.7,2.2,4.9,4.9,4.9s4.9-2.2,4.9-4.9,0-.9-.2-1.4h-9.4Z"/>
  <path class="st2" d="M21.9,18.8c-.1.4-.2.9-.2,1.4,0,2.7,2.2,4.9,4.9,4.9s4.9-2.2,4.9-4.9,0-.9-.2-1.4h-9.4Z"/>
  <path class="st2" d="M31.7,18.8c-.1.4-.2.9-.2,1.4,0,2.7,2.2,4.9,4.9,4.9s4.9-2.2,4.9-4.9,0-.9-.2-1.4h-9.4Z"/>
  <path class="st2" d="M41.5,18.8c-.1.4-.2.9-.2,1.4,0,2.7,2.2,4.9,4.9,4.9s4.9-2.2,4.9-4.9,0-.9-.2-1.4h-9.4Z"/>
  <path class="st0" d="M45.1,7.6c-1-1.9-3-3.1-5.2-3.1H13.2c-2.2,0-4.2,1.2-5.2,3.1l-5.9,11.2h49l-6-11.2Z"/>
  <path class="st1" d="M31.1,48v-27.9"/>
  <path class="st1" d="M7,40.9h24.1"/>
  <path class="st3" d="M37,38.7c.9,0,1.7-.8,1.7-1.7s-.8-1.7-1.7-1.7-1.7.8-1.7,1.7.8,1.7,1.7,1.7Z"/>
  <path class="st2" d="M33.1,2.2h-13c-1.5,0-2.7,1.2-2.7,2.7v2.5c0,1.5,1.2,2.7,2.7,2.7h13c1.5,0,2.7-1.2,2.7-2.7v-2.5c0-1.5-1.2-2.7-2.7-2.7Z"/>
</svg>