<?xml version="1.0" encoding="UTF-8"?>
<svg id="_圖層_2" data-name="圖層 2" xmlns="http://www.w3.org/2000/svg" viewBox="0 0 185.14 19.16">
  <defs>
    <style>
      .cls-1 {
        fill: #040000;
      }
    </style>
  </defs>
  <g id="_圖層_1-2" data-name="圖層 1">
    <g>
      <path class="cls-1" d="M9.58,18.65C4.57,18.65.5,14.58.5,9.58S4.57.5,9.58.5h165.99c5,0,9.08,4.07,9.08,9.08s-4.07,9.08-9.08,9.08H9.58Z"/>
      <path d="M175.56,1c4.73,0,8.58,3.85,8.58,8.58s-3.85,8.58-8.58,8.58H9.58c-4.73,0-8.58-3.85-8.58-8.58S4.85,1,9.58,1h165.99M175.56,0H9.58C4.29,0,0,4.29,0,9.58s4.29,9.58,9.58,9.58h165.99c5.29,0,9.58-4.29,9.58-9.58s-4.29-9.58-9.58-9.58h0Z"/>
    </g>
  </g>
</svg>