<svg id="coloredSvg307" class="coloredSvg icon307" viewBox="0 0 80 80" fill="none" xmlns="http://www.w3.org/2000/svg">
                    <path d="M64.5667 43.8829C65.6 42.7163 66.6667 41.5163 66.6667 39.9996C66.6667 38.4829 65.6 37.2829 64.5667 36.1163C63.8833 35.3496 63.1833 34.5496 63 33.8329C62.8 33.0663 63 31.9996 63.2167 30.9663C63.5167 29.4663 63.8167 27.9163 63.1 26.6663C62.3667 25.3829 60.85 24.8829 59.4 24.3829C58.4167 24.0496 57.3833 23.6996 56.85 23.1663C56.3 22.6163 55.9667 21.5996 55.6333 20.6163C55.15 19.1663 54.6333 17.6496 53.35 16.9163C52.0833 16.1829 50.55 16.4996 49.05 16.7996C48.0167 16.9996 46.95 17.2163 46.1833 17.0163C45.4667 16.8329 44.6667 16.1329 43.9 15.4496C42.7333 14.4163 41.5333 13.3496 40.0167 13.3496C38.5 13.3496 37.3 14.4163 36.1333 15.4496C35.3667 16.1329 34.5667 16.8329 33.85 17.0163C33.0833 17.2163 32.0167 17.0163 30.9833 16.7996C29.4833 16.4996 27.9333 16.1996 26.6833 16.9163C25.4 17.6496 24.9 19.1663 24.4 20.6163C24.0667 21.5996 23.7167 22.6329 23.1833 23.1663C22.6333 23.7163 21.6167 24.0496 20.6333 24.3829C19.1833 24.8663 17.6667 25.3829 16.9333 26.6663C16.2 27.9329 16.5167 29.4663 16.8167 30.9663C17.0167 31.9996 17.2333 33.0663 17.0333 33.8329C16.85 34.5496 16.15 35.3496 15.4667 36.1163C14.4333 37.2829 13.3667 38.4829 13.3667 39.9996C13.3667 41.5163 14.4333 42.7163 15.4667 43.8829C16.15 44.6496 16.85 45.4496 17.0333 46.1663C17.2333 46.9329 17.0333 47.9996 16.8167 49.0329C16.5167 50.5329 16.2167 52.0829 16.9333 53.3329C17.6667 54.6163 19.1833 55.1163 20.6333 55.6163C21.6167 55.9496 22.65 56.2996 23.1833 56.8329C23.7333 57.3829 24.0667 58.3996 24.4 59.3829C24.8833 60.8329 25.4 62.3496 26.6833 63.0829C27.95 63.8163 29.4833 63.4996 30.9833 63.1996C32.0167 62.9996 33.0833 62.7829 33.85 62.9829C34.5667 63.1663 35.3667 63.8663 36.1333 64.5496C37.3 65.5829 38.5 66.6496 40.0167 66.6496C41.5333 66.6496 42.7333 65.5829 43.9 64.5496C44.6667 63.8663 45.4667 63.1663 46.1833 62.9829C46.95 62.7829 48.0167 62.9829 49.05 63.1996C50.55 63.4996 52.1 63.7996 53.35 63.0829C54.6333 62.3496 55.1333 60.8329 55.6333 59.3829C55.9667 58.3996 56.3167 57.3663 56.85 56.8329C57.4 56.2829 58.4167 55.9496 59.4 55.6163C60.85 55.1329 62.3667 54.6163 63.1 53.3329C63.8333 52.0663 63.5167 50.5329 63.2167 49.0329C63.0167 47.9996 62.8 46.9329 63 46.1663C63.1833 45.4496 63.8833 44.6496 64.5667 43.8829Z" fill="#ff0000" stroke="#3E4142" stroke-width="1.66667" stroke-miterlimit="10" style="fill: rgb(255, 0, 0); stroke-width: 3.2px;"/>
                    <path d="M32.0167 43.8158C32.0167 44.6992 32 45.2492 31.95 45.4825C31.8833 45.8325 31.7 46.1325 31.4167 46.3992C31.1167 46.6658 30.75 46.7992 30.3 46.7992C29.85 46.7992 29.5 46.6658 29.2333 46.3825C29.05 46.2158 28.7167 45.7492 28.2167 44.9492L24.4833 39.0158V44.5158C24.4833 45.1158 24.4833 45.5158 24.45 45.6825C24.4 45.9825 24.3 46.2158 24.1333 46.3825C23.8667 46.6658 23.55 46.7992 23.1833 46.7992C22.7667 46.7992 22.45 46.6658 22.2 46.3992C22.05 46.2325 21.9333 45.9825 21.9 45.6825C21.8833 45.4992 21.8667 45.1158 21.8667 44.5158V37.3992C21.8667 36.5492 21.8833 36.0158 21.9333 35.7658C22 35.4325 22.1667 35.1492 22.45 34.8992C22.7167 34.5992 23.0833 34.4658 23.55 34.4658C23.9667 34.4658 24.3333 34.5992 24.6167 34.8825C24.7833 35.0492 25.1 35.5158 25.5833 36.2825L29.4167 42.3825V36.7658C29.4167 36.1825 29.4167 35.7825 29.4667 35.5992C29.5167 35.2992 29.6167 35.0658 29.7833 34.8992C30.05 34.5992 30.3667 34.4658 30.7167 34.4658C31.1 34.4658 31.4167 34.5992 31.6833 34.8825C31.85 35.0492 31.9667 35.2825 32 35.5992C32.0167 35.7825 32.0333 36.1658 32.0333 36.7658V43.8158H32.0167Z" fill="white" style="stroke-width: 3.2px;"/>
                    <path d="M43.7 45.516C43.7 45.8326 43.5833 46.0993 43.3667 46.316C43.2333 46.4493 43.05 46.5493 42.8 46.5826C42.6667 46.5993 42.35 46.616 41.85 46.616H36.6167C35.9167 46.616 35.4667 46.616 35.2667 46.566C35.0333 46.516 34.8 46.3826 34.5833 46.1993C34.3833 45.9993 34.2667 45.766 34.2167 45.466C34.1833 45.2826 34.1667 44.8326 34.1667 44.116V37.1826C34.1667 36.4326 34.1667 35.9826 34.2167 35.816C34.25 35.566 34.3667 35.3326 34.5667 35.116C34.7667 34.916 35 34.7826 35.2833 34.7493C35.4667 34.6993 35.9167 34.6826 36.6167 34.6826H41.7167C42.5167 34.6826 42.9833 34.7826 43.15 34.966C43.3833 35.1993 43.5 35.4493 43.5 35.7326C43.5 36.0493 43.4 36.2993 43.1833 36.4993C43 36.6826 42.5 36.7826 41.7167 36.7826H36.9833V39.3326H41.3167C41.7667 39.3326 42.0667 39.3326 42.2 39.366C42.4167 39.3993 42.6 39.4826 42.7167 39.6326C42.9333 39.8326 43.0333 40.0826 43.0333 40.3826C43.0333 40.6493 42.9333 40.8993 42.7333 41.0993C42.55 41.2993 42.0667 41.3993 41.3 41.3993H36.9667V44.466H41.8333C42.6333 44.466 43.1333 44.566 43.3167 44.7826C43.5667 45.016 43.6833 45.2826 43.6833 45.5826L43.7 45.516Z" fill="white" style="stroke-width: 3.2px;"/>
                    <path d="M59.4 35.7169C59.4 35.9835 59.3333 36.4169 59.1833 37.0335L57.6 44.0835C57.3167 45.2669 57.05 46.0169 56.8 46.3169C56.5333 46.6335 56.1333 46.7835 55.6166 46.7835C55.1666 46.7835 54.8 46.6502 54.4833 46.4002C54.2833 46.2335 54.1167 45.9835 54 45.6169C53.9 45.4169 53.7666 44.9335 53.5666 44.1669L52.0333 38.2835H51.7833L50.2667 44.1502C49.9833 45.2835 49.6833 46.0169 49.4 46.3502C49.15 46.6502 48.75 46.7835 48.2167 46.7835C47.7333 46.7835 47.3333 46.6502 47.05 46.3669C46.85 46.1835 46.6833 45.9002 46.5667 45.5335C46.5 45.3002 46.3666 44.8169 46.1833 44.0669L44.6167 37.0669C44.45 36.3835 44.3833 35.9502 44.3833 35.7502C44.3833 35.4002 44.5167 35.0835 44.7833 34.8335C45.0333 34.5669 45.3333 34.4502 45.6833 34.4502C45.9333 34.4502 46.1833 34.5335 46.4333 34.6835C46.65 34.8169 46.8 35.0335 46.9 35.3169C46.95 35.4502 47.0333 35.8502 47.1666 36.4835L48.2833 42.1335H48.5167L49.8667 37.1669C50.1167 36.2169 50.3 35.6335 50.4167 35.4169C50.7667 34.7835 51.2833 34.4502 51.9833 34.4502C52.6833 34.4502 53.1667 34.7335 53.4833 35.2835C53.65 35.5835 53.8667 36.2335 54.1167 37.2169L55.3667 42.2169H55.5833L56.7333 36.4502C56.85 35.8502 56.9333 35.4669 56.9833 35.3169C57.0833 35.0335 57.25 34.8169 57.45 34.6835C57.6833 34.5335 57.9333 34.4502 58.1833 34.4502C58.5333 34.4502 58.8333 34.5835 59.0666 34.8335C59.3166 35.0669 59.45 35.3669 59.45 35.7169H59.4Z" fill="white" style="stroke-width: 3.2px;"/>
                </svg>