<?xml version="1.0" encoding="UTF-8"?>
<svg id="_圖層_2" data-name="圖層 2" xmlns="http://www.w3.org/2000/svg" viewBox="0 0 185.14 185.14">
  <defs>
    <style>
      .cls-1 {
        fill: #040000;
      }
    </style>
  </defs>
  <g id="_圖層_1-2" data-name="圖層 1">
    <g>
      <path class="cls-1" d="M92.57,184.64c-3.98,0-7.22-3.24-7.22-7.22v-77.62H7.72c-3.98,0-7.22-3.24-7.22-7.22s3.24-7.22,7.22-7.22h77.62V7.72c0-3.98,3.24-7.22,7.22-7.22s7.22,3.24,7.22,7.22v77.62h77.62c3.98,0,7.22,3.24,7.22,7.22s-3.24,7.22-7.22,7.22h-77.62v77.62c0,3.98-3.24,7.22-7.22,7.22Z"/>
      <path d="M92.57,1c3.71,0,6.72,3.02,6.72,6.72v78.12h78.12c3.71,0,6.72,3.02,6.72,6.72s-3.02,6.72-6.72,6.72h-78.12v78.12c0,3.71-3.02,6.72-6.72,6.72s-6.72-3.02-6.72-6.72v-78.12H7.72c-3.71,0-6.72-3.02-6.72-6.72s3.02-6.72,6.72-6.72h78.12V7.72c0-3.71,3.02-6.72,6.72-6.72M92.57,0c-4.27,0-7.72,3.46-7.72,7.72v77.12H7.72c-4.27,0-7.72,3.46-7.72,7.72s3.46,7.72,7.72,7.72h77.12v77.12c0,4.27,3.46,7.72,7.72,7.72s7.72-3.46,7.72-7.72v-77.12h77.12c4.27,0,7.72-3.46,7.72-7.72s-3.46-7.72-7.72-7.72h-77.12V7.72c0-4.27-3.46-7.72-7.72-7.72h0Z"/>
    </g>
  </g>
</svg>