<?xml version="1.0" encoding="UTF-8"?>
<svg id="_圖層_2" data-name="圖層 2" xmlns="http://www.w3.org/2000/svg" viewBox="0 0 175.91 199.76">
  <g id="_圖層_1-2" data-name="圖層 1">
    <path d="M168.79,77.09c-2.23-5.19-9.08-6.39-13.07-2.4h0c-2.31,2.31-3.04,5.8-1.75,8.8,4.08,9.47,6.19,19.98,5.78,31.03-1.37,36.65-30.66,66.73-67.27,68.98-43.21,2.66-78.95-33.13-76.21-76.36,2.32-36.51,32.31-65.71,68.87-67.12,9.93-.38,19.41,1.29,28.12,4.58l-23.13,5.39c-3.48.81-5.64,4.29-4.83,7.77.81,3.48,4.29,5.64,7.77,4.83l46.29-10.78c1.16-.09,2.32-.49,3.32-1.23h0c2.87-2.13,3.47-6.18,1.34-9.05L115.17,2.62c-2.13-2.87-6.18-3.47-9.05-1.34h0c-2.87,2.13-3.47,6.18-1.34,9.05l14.21,19.17c-10.85-4.1-22.73-6.12-35.15-5.55C39.78,25.95,1.42,64.89.04,108.98c-1.59,50.81,39.93,92.33,90.74,90.74,44.4-1.39,83.34-40.03,85.06-84.41.53-13.61-2.04-26.55-7.06-38.21Z"/>
  </g>
</svg>